/* XPM */
static char *load_1[] = {
"8 24 4 1",
"$ c #98971a",
"# c #1d2021",
"! c none",
"  c white",
"!!!!!!!!",
"!!!!!!!!",
"########",
"########",
"########",
"########",
"########",
"########",
"########",
"########",
"########",
"########",
"########",
"########",
"########",
"########",
"$$$$$$$$",
"$$$$$$$$",
"$$$$$$$$",
"!!!!!!!!",
"!!!!!!!!",
"!!!!!!!!",
"!!!!!!!!",
"!!!!!!!!"
};
