/* XPM */
static char *load_8[] = {
"8 24 4 1",
"$ c #cc241d",
"  c white",
"! c none",
"# c #1d2021",
"!!!!!!!!",
"!!!!!!!!",
"$$$$$$$$",
"$$$$$$$$",
"$$$$$$$$",
"$$$$$$$$",
"$$$$$$$$",
"$$$$$$$$",
"$$$$$$$$",
"$$$$$$$$",
"$$$$$$$$",
"$$$$$$$$",
"$$$$$$$$",
"$$$$$$$$",
"$$$$$$$$",
"$$$$$$$$",
"$$$$$$$$",
"$$$$$$$$",
"$$$$$$$$",
"!!!!!!!!",
"!!!!!!!!",
"!!!!!!!!",
"!!!!!!!!",
"!!!!!!!!"
};
