/* XPM */
static char *load_2[] = {
"8 24 4 1",
"$ c #98971a",
"! c none",
"  c white",
"# c #1d2021",
"!!!!!!!!",
"!!!!!!!!",
"########",
"########",
"########",
"########",
"########",
"########",
"########",
"########",
"########",
"########",
"########",
"########",
"$$$$$$$$",
"$$$$$$$$",
"$$$$$$$$",
"$$$$$$$$",
"$$$$$$$$",
"!!!!!!!!",
"!!!!!!!!",
"!!!!!!!!",
"!!!!!!!!",
"!!!!!!!!"
};
