/* XPM */
static char *load_6[] = {
"8 24 4 1",
"# c #1d2021",
"! c none",
"  c white",
"$ c #cc241d",
"!!!!!!!!",
"!!!!!!!!",
"########",
"########",
"########",
"########",
"$$$$$$$$",
"$$$$$$$$",
"$$$$$$$$",
"$$$$$$$$",
"$$$$$$$$",
"$$$$$$$$",
"$$$$$$$$",
"$$$$$$$$",
"$$$$$$$$",
"$$$$$$$$",
"$$$$$$$$",
"$$$$$$$$",
"$$$$$$$$",
"!!!!!!!!",
"!!!!!!!!",
"!!!!!!!!",
"!!!!!!!!",
"!!!!!!!!"
};
